<svg width="33" height="32" viewBox="0 0 33 32" fill="none" xmlns="http://www.w3.org/2000/svg">
<path d="M20.5 12.6786V6.95833C20.5 5.5316 19.3061 4.375 17.8333 4.375H15.1667C13.6939 4.375 12.5 5.5316 12.5 6.95833V17.6607M20.5 12.6786V27.625M20.5 12.6786H25.8333C27.3061 12.6786 28.5 13.8352 28.5 15.2619V25.0417C28.5 26.4684 27.3061 27.625 25.8333 27.625H20.5M20.5 27.625H12.5M12.5 27.625V17.6607M12.5 27.625H7.16667C5.69391 27.625 4.5 26.4684 4.5 25.0417V20.244C4.5 18.8173 5.69391 17.6607 7.16667 17.6607H12.5" stroke="#8FA0A9" stroke-width="1.5" stroke-linecap="round" stroke-linejoin="round"/>
</svg>
