<svg width="41" height="40" viewBox="0 0 41 40" fill="none" xmlns="http://www.w3.org/2000/svg">
<path d="M16.1915 5.375H12.3854C10.2626 5.375 8.54169 7.01196 8.54169 9.03125V30.9688C8.54169 32.988 10.2626 34.625 12.3854 34.625H27.7604C29.8833 34.625 31.6042 32.988 31.6042 30.9688V20M16.1915 5.375C18.3144 5.375 20.0729 7.01196 20.0729 9.03125V12.6875C20.0729 14.7068 21.7938 16.3438 23.9167 16.3438H27.7604C29.8833 16.3438 31.6042 17.9807 31.6042 20M16.1915 5.375C22.4951 5.375 31.6042 14.0845 31.6042 20" stroke="#8FA0A9" stroke-width="1.5" stroke-linecap="round" stroke-linejoin="round"/>
<path d="M15.375 27.3125H25.625" stroke="#8FA0A9" stroke-width="1.5" stroke-linecap="round" stroke-linejoin="round"/>
<path d="M15.375 22.4375H22.2083" stroke="#8FA0A9" stroke-width="1.5" stroke-linecap="round" stroke-linejoin="round"/>
</svg>
