<svg width="35" height="36" viewBox="0 0 35 36" fill="none" xmlns="http://www.w3.org/2000/svg">
<path d="M29.1607 15.9317V28.5C29.1607 30.1569 27.8555 31.5 26.2455 31.5H8.75444C7.14443 31.5 5.83926 30.1569 5.83926 28.5V15.9317M10.9408 13.125L11.6696 4.5M10.9408 13.125C10.9408 17.4777 17.5 17.4777 17.5 13.125M10.9408 13.125C10.9408 17.8887 3.4232 16.9061 4.47607 12.7526L5.99953 6.74274C6.3344 5.42174 7.49371 4.5 8.82031 4.5H26.1796C27.5062 4.5 28.6655 5.42174 29.0004 6.74273L30.5239 12.7526C31.5767 16.9061 24.0591 17.8887 24.0591 13.125M17.5 13.125V4.5M17.5 13.125C17.5 17.4777 24.0591 17.4777 24.0591 13.125M24.0591 13.125L23.3303 4.5" stroke="#8FA0A9" stroke-width="1.5" stroke-linecap="round" stroke-linejoin="round"/>
</svg>
