<svg width="39" height="40" viewBox="0 0 39 40" fill="none" xmlns="http://www.w3.org/2000/svg">
<path d="M27.4167 32.1875C27.4167 29.4951 23.8723 27.3125 19.5 27.3125C15.1277 27.3125 11.5833 29.4951 11.5833 32.1875M33.75 27.3131C33.75 25.314 31.796 23.596 29 22.8438M5.25 27.3131C5.25 25.314 7.20398 23.596 10 22.8438M29 16.3212C29.9718 15.4285 30.5833 14.1313 30.5833 12.6875C30.5833 9.99511 28.4567 7.8125 25.8333 7.8125C24.6168 7.8125 23.507 8.28189 22.6667 9.05383M10 16.3212C9.02823 15.4285 8.41667 14.1313 8.41667 12.6875C8.41667 9.99511 10.5433 7.8125 13.1667 7.8125C14.3832 7.8125 15.493 8.28189 16.3333 9.05383M19.5 22.4375C16.8766 22.4375 14.75 20.2549 14.75 17.5625C14.75 14.8701 16.8766 12.6875 19.5 12.6875C22.1234 12.6875 24.25 14.8701 24.25 17.5625C24.25 20.2549 22.1234 22.4375 19.5 22.4375Z" stroke="#8FA0A9" stroke-width="1.5" stroke-linecap="round" stroke-linejoin="round"/>
</svg>
